<?xml version="1.0" encoding="UTF-8"?>
<svg version="1.1" xmlns="http://www.w3.org/2000/svg" style="display: block;" viewBox="0 0 512 512">
<path transform="translate(0,0)" fill="rgb(235,242,250)" d="M 0 0 L 0 512 L 512 512 L 512 0 L 0 0 z"/>
<path transform="translate(0,0)" fill="rgb(6,71,137)" d="M 325.423 240.057 L 325.598 239.911 C 326.854 239.846 328.481 238.938 329.692 238.479 L 348.617 231.888 C 363.019 227.893 378.214 226.23 393.129 226.177 L 403.724 226.295 C 414.02 226.837 425.814 228.339 435.857 230.776 L 429.47 240.691 C 426.601 244.842 423.693 249.067 420.443 252.933 C 397.745 279.935 361.568 300.339 325.604 300.383 L 189.469 300.385 C 152.007 300.348 119.805 287.385 93.999 259.258 C 87.1139 251.754 80.7398 242.855 75.5298 234.116 C 82.934 231.016 91.7021 229.391 99.6206 228.313 C 130.763 224.075 155.395 228.732 184.214 238.84 L 173.662 227.787 C 159.693 212.546 147.242 195.528 138.229 176.861 C 133.546 167.325 128.598 154.855 126.983 144.26 C 133.724 145.168 140.509 146.075 147.093 147.825 C 172.583 154.598 195.525 170.352 212.977 189.889 L 222.602 201.705 C 224.452 204.18 226.122 206.812 228.132 209.159 L 225.971 192.014 C 225.315 187.172 225.546 182.094 225.55 177.21 L 225.76 164.558 C 227.504 137.119 238.899 97.862 256.187 75.2951 L 259.068 79.2896 C 273.259 101.582 281.149 128.516 283.725 154.618 L 284.324 160.666 L 284.287 185.52 C 283.777 193.64 282.364 201.907 280.581 209.837 C 283.062 207.436 284.762 204.28 286.777 201.495 C 308.335 171.681 345.381 147.57 382.494 145.508 C 381.745 147.594 381.435 149.947 380.848 152.101 L 377.163 163.757 C 367.829 190.914 351.816 212.74 331.957 233.343 L 327.681 237.664 C 327.064 238.27 326.183 238.949 325.731 239.685 L 325.598 239.911 L 325.423 240.057 z"/>
<path transform="translate(0,0)" fill="rgb(6,71,137)" d="M 384.864 400.03 L 369.361 401.313 C 363.454 401.389 357.357 401.628 351.462 401.239 C 327.118 399.632 300.173 391.4 282.485 374.115 C 279.271 370.974 272.206 363.733 269.745 359.961 C 269.128 359.017 269.426 351.961 269.424 350.509 L 269.436 323.067 C 271.496 323.068 273.58 323.219 275.541 323.218 L 305.143 323.221 C 312.569 323.224 319.554 323.221 326.854 324.875 C 358.707 332.089 380.537 361.479 385.277 392.771 L 385.777 397.405 C 385.834 398.169 385.969 399.008 385.795 399.758 L 384.864 400.03 z"/>
<path transform="translate(0,0)" fill="rgb(6,71,137)" d="M 125.393 400.903 L 123.578 400.678 C 123.591 368.902 147.173 336.626 177.081 326.27 C 182.919 324.248 188.758 323.465 194.888 323.459 L 242.28 323.419 L 243.111 362.315 C 242.876 364.24 230.009 375.885 227.662 377.788 C 207.909 393.798 180.461 400.385 155.538 401.646 L 132.554 401.623 L 125.393 400.903 z"/>
</svg>
