<?xml version="1.0" encoding="utf-8" ?>
<svg xmlns="http://www.w3.org/2000/svg" xmlns:xlink="http://www.w3.org/1999/xlink" width="512" height="512">
	<path fill="#EBF2FA" d="M0 0L0 512L512 512L512 0L0 0Z"/>
	<path fill="#064789" d="M297.619 184.942L297.723 184.854C298.477 184.816 299.452 184.272 300.178 183.996L311.523 180.045C320.157 177.65 329.267 176.653 338.209 176.621L344.56 176.692C350.732 177.017 357.803 177.918 363.823 179.378L359.995 185.323C358.274 187.811 356.531 190.344 354.583 192.662C340.975 208.849 319.288 221.081 297.728 221.108L216.115 221.109C193.657 221.087 174.352 213.315 158.881 196.453C154.753 191.955 150.932 186.62 147.809 181.381C152.248 179.522 157.504 178.548 162.251 177.902C180.921 175.361 195.688 178.153 212.965 184.213L206.639 177.586C198.265 168.45 190.8 158.247 185.397 147.057C182.589 141.34 179.623 133.864 178.655 127.512C182.696 128.057 186.763 128.6 190.711 129.65C205.992 133.71 219.745 143.154 230.208 154.866L235.978 161.95C237.087 163.434 238.088 165.012 239.294 166.419L237.998 156.141C237.605 153.238 237.743 150.194 237.746 147.266L237.871 139.681C238.917 123.232 245.748 99.6969 256.112 86.1681L257.839 88.5628C266.347 101.927 271.077 118.074 272.621 133.722L272.98 137.348L272.958 152.248C272.652 157.115 271.805 162.072 270.736 166.826C272.224 165.386 273.243 163.494 274.451 161.824C287.375 143.951 309.583 129.497 331.833 128.26C331.384 129.511 331.198 130.922 330.846 132.213L328.636 139.201C323.041 155.481 313.441 168.566 301.536 180.917L298.972 183.507C298.602 183.871 298.074 184.278 297.803 184.719L297.723 184.854L297.619 184.942Z"/>
	<path fill="#064789" d="M333.254 280.845L323.96 281.615C320.418 281.66 316.763 281.803 313.229 281.57C298.635 280.607 282.482 275.672 271.878 265.31C269.951 263.427 265.716 259.085 264.24 256.824C263.87 256.258 264.049 252.028 264.047 251.158L264.055 234.707C265.29 234.707 266.539 234.797 267.715 234.797L285.461 234.799C289.913 234.801 294.1 234.799 298.477 235.79C317.572 240.115 330.659 257.735 333.501 276.494L333.801 279.272C333.835 279.73 333.916 280.233 333.812 280.682L333.254 280.845Z"/>
	<path fill="#064789" d="M177.702 281.369L176.613 281.234C176.621 262.185 190.759 242.835 208.688 236.626C212.188 235.415 215.689 234.945 219.364 234.941L247.775 234.917L248.273 258.236C248.132 259.389 240.418 266.37 239.011 267.511C227.169 277.109 210.714 281.058 195.773 281.814L181.994 281.8L177.702 281.369Z"/>
	<path fill="#427AA1" d="M80.1448 422.592C76.8575 422.592 74.1221 421.888 71.9384 420.479C69.7547 419.07 68.0994 417.121 66.9723 414.632C65.8453 412.143 65.1878 409.255 65 405.968L72.0441 404.066C72.185 406.085 72.5019 408.034 72.995 409.913C73.4881 411.791 74.2982 413.329 75.4252 414.527C76.5523 415.724 78.1254 416.323 80.1448 416.323C82.211 416.323 83.7724 415.747 84.8291 414.597C85.8857 413.446 86.414 411.791 86.414 409.631C86.414 407.048 85.827 404.97 84.653 403.397C83.4789 401.824 81.9997 400.239 80.2152 398.642L70.6353 390.189C68.7568 388.546 67.3715 386.749 66.4793 384.801C65.587 382.852 65.1409 380.445 65.1409 377.58C65.1409 373.401 66.3384 370.161 68.7334 367.86C71.1283 365.559 74.3921 364.408 78.5246 364.408C80.7787 364.408 82.7628 364.701 84.4769 365.288C86.1909 365.876 87.6232 366.779 88.7737 368C89.9242 369.221 90.84 370.759 91.5209 372.614C92.2019 374.469 92.6597 376.641 92.8945 379.13L86.1322 380.962C85.9913 379.083 85.7096 377.357 85.2869 375.784C84.8643 374.211 84.1247 372.943 83.068 371.98C82.0114 371.018 80.497 370.536 78.5246 370.536C76.5523 370.536 75.0143 371.065 73.9107 372.121C72.8072 373.178 72.2554 374.739 72.2554 376.806C72.2554 378.543 72.5489 379.975 73.1359 381.102C73.7229 382.229 74.6738 383.38 75.9887 384.554L85.6391 393.007C87.7993 394.885 89.7012 397.128 91.3448 399.734C92.9884 402.34 93.8102 405.428 93.8102 408.997C93.8102 411.815 93.2233 414.245 92.0492 416.288C90.8752 418.33 89.2668 419.892 87.224 420.972C85.1813 422.052 82.8215 422.592 80.1448 422.592ZM99.5864 421.958L99.5864 381.243L107.124 381.243L107.124 387.019C108.626 384.531 110.129 382.863 111.632 382.018C113.134 381.173 114.637 380.75 116.14 380.75C116.328 380.75 116.504 380.75 116.668 380.75C116.833 380.75 117.056 380.774 117.337 380.821L117.337 389.133C116.774 388.898 116.128 388.698 115.4 388.534C114.672 388.37 113.933 388.287 113.181 388.287C112.007 388.287 110.939 388.557 109.976 389.097C109.014 389.638 108.063 390.682 107.124 392.232L107.124 421.958L99.5864 421.958ZM127.833 422.522C126.236 422.522 124.992 422.099 124.1 421.254C123.207 420.408 122.585 419.352 122.233 418.084C121.881 416.816 121.705 415.524 121.705 414.21L121.705 381.243L129.242 381.243L129.242 411.955C129.242 413.411 129.453 414.55 129.876 415.372C130.299 416.194 131.167 416.605 132.482 416.605C133.327 416.605 134.208 416.358 135.124 415.865C136.039 415.372 136.92 414.773 137.765 414.069L137.765 381.243L145.302 381.243L145.302 421.958L137.765 421.958L137.765 417.943C136.45 419.211 134.959 420.291 133.292 421.183C131.625 422.075 129.805 422.522 127.833 422.522ZM163.828 422.522C161.715 422.522 160.013 422.122 158.721 421.324C157.43 420.526 156.49 419.399 155.904 417.943C155.317 416.487 155.023 414.773 155.023 412.801L155.023 386.245L150.726 386.245L150.726 381.243L155.023 381.243L155.023 369.339L162.56 369.339L162.56 381.243L169.111 381.243L169.111 386.245L162.56 386.245L162.56 412.308C162.56 413.904 162.819 415.043 163.335 415.724C163.852 416.405 164.838 416.745 166.294 416.745C166.669 416.745 167.104 416.722 167.597 416.675C168.09 416.628 168.571 416.581 169.041 416.534L169.041 422.099C168.102 422.24 167.233 422.345 166.435 422.416C165.637 422.486 164.767 422.522 163.828 422.522ZM174.887 421.958L174.887 364.901L182.425 364.901L182.425 385.47C183.786 384.155 185.313 383.028 187.003 382.089C188.694 381.149 190.573 380.68 192.639 380.68C194.235 380.68 195.468 381.102 196.337 381.948C197.205 382.793 197.816 383.85 198.168 385.118C198.52 386.385 198.696 387.677 198.696 388.992L198.696 421.958L191.159 421.958L191.159 391.175C191.159 389.72 190.948 388.593 190.525 387.794C190.103 386.996 189.234 386.597 187.919 386.597C187.027 386.597 186.1 386.855 185.137 387.372C184.174 387.888 183.27 388.522 182.425 389.274L182.425 421.958L174.887 421.958ZM206.515 421.958L206.515 381.243L214.053 381.243L214.053 421.958L206.515 421.958ZM206.515 375.185L206.515 367.296L214.053 367.296L214.053 375.185L206.515 375.185ZM238.777 421.958L239.834 364.901L247.653 364.901L257.726 411.181L267.869 364.901L275.618 364.901L276.674 421.958L270.264 421.958L269.63 380.539L259.98 421.958L255.472 421.958L245.892 380.539L245.258 421.958L238.777 421.958ZM290.903 422.522C289.306 422.522 287.898 422.064 286.677 421.148C285.456 420.232 284.493 419.058 283.789 417.626C283.084 416.194 282.732 414.679 282.732 413.083C282.732 410.547 283.155 408.41 284 406.672C284.845 404.935 286.008 403.467 287.487 402.27C288.966 401.072 290.68 400.028 292.629 399.135C294.578 398.243 296.632 397.374 298.793 396.529L298.793 393.641C298.793 391.997 298.699 390.635 298.511 389.555C298.323 388.475 297.935 387.665 297.349 387.125C296.762 386.585 295.881 386.315 294.707 386.315C293.674 386.315 292.84 386.55 292.206 387.019C291.573 387.489 291.115 388.158 290.833 389.027C290.551 389.896 290.41 390.917 290.41 392.091L290.41 394.134L282.944 393.852C283.037 389.344 284.071 386.022 286.043 383.885C288.015 381.748 291.067 380.68 295.2 380.68C299.239 380.68 302.103 381.783 303.794 383.991C305.485 386.198 306.33 389.391 306.33 393.57L306.33 412.167C306.33 413.435 306.365 414.656 306.436 415.83C306.506 417.004 306.6 418.096 306.717 419.105C306.835 420.115 306.941 421.066 307.034 421.958L300.131 421.958C299.99 421.207 299.814 420.256 299.603 419.105C299.391 417.955 299.239 416.91 299.145 415.971C298.675 417.567 297.771 419.058 296.433 420.444C295.095 421.829 293.251 422.522 290.903 422.522ZM293.862 416.041C294.613 416.041 295.318 415.83 295.975 415.407C296.632 414.984 297.22 414.503 297.736 413.963C298.252 413.423 298.605 412.989 298.793 412.66L298.793 401.108C297.618 401.765 296.515 402.423 295.482 403.08C294.449 403.737 293.545 404.43 292.77 405.158C291.995 405.886 291.384 406.708 290.939 407.623C290.493 408.539 290.269 409.584 290.269 410.758C290.269 412.402 290.574 413.693 291.185 414.632C291.796 415.571 292.688 416.041 293.862 416.041ZM318.657 421.958L310.627 381.243L318.234 381.243L323.236 413.998L328.307 381.243L335.633 381.243L327.885 421.958L318.657 421.958ZM346.34 422.522C344.743 422.522 343.499 422.099 342.607 421.254C341.714 420.408 341.092 419.352 340.74 418.084C340.388 416.816 340.212 415.524 340.212 414.21L340.212 381.243L347.749 381.243L347.749 411.955C347.749 413.411 347.96 414.55 348.383 415.372C348.806 416.194 349.674 416.605 350.989 416.605C351.835 416.605 352.715 416.358 353.631 415.865C354.547 415.372 355.427 414.773 356.272 414.069L356.272 381.243L363.809 381.243L363.809 421.958L356.272 421.958L356.272 417.943C354.957 419.211 353.467 420.291 351.799 421.183C350.132 422.075 348.313 422.522 346.34 422.522ZM372.192 421.958L372.192 364.901L379.729 364.901L379.729 421.958L372.192 421.958ZM398.889 422.522C395.696 422.522 393.23 421.899 391.493 420.655C389.755 419.41 388.546 417.579 387.865 415.161C387.184 412.742 386.844 409.772 386.844 406.25L386.844 396.952C386.844 393.336 387.196 390.33 387.9 387.935C388.605 385.54 389.837 383.732 391.598 382.511C393.359 381.29 395.79 380.68 398.889 380.68C402.317 380.68 404.841 381.384 406.461 382.793C408.081 384.202 409.15 386.233 409.666 388.886C410.183 391.539 410.441 394.721 410.441 398.431L410.441 401.742L394.381 401.742L394.381 409.913C394.381 411.556 394.534 412.895 394.839 413.928C395.144 414.961 395.637 415.724 396.318 416.217C396.999 416.71 397.88 416.957 398.959 416.957C400.086 416.957 400.944 416.687 401.53 416.147C402.117 415.607 402.517 414.832 402.728 413.822C402.939 412.813 403.045 411.627 403.045 410.265L403.045 407.799L410.371 407.799L410.371 409.349C410.371 413.435 409.502 416.652 407.764 419C406.027 421.348 403.068 422.522 398.889 422.522ZM394.381 397.656L403.045 397.656L403.045 393.993C403.045 392.303 402.951 390.882 402.763 389.731C402.575 388.581 402.188 387.712 401.601 387.125C401.014 386.538 400.086 386.245 398.818 386.245C397.598 386.245 396.67 386.526 396.036 387.09C395.402 387.653 394.967 388.604 394.733 389.943C394.498 391.281 394.381 393.124 394.381 395.472L394.381 397.656ZM428.122 422.522C426.009 422.522 424.306 422.122 423.015 421.324C421.724 420.526 420.784 419.399 420.197 417.943C419.61 416.487 419.317 414.773 419.317 412.801L419.317 386.245L415.02 386.245L415.02 381.243L419.317 381.243L419.317 369.339L426.854 369.339L426.854 381.243L433.405 381.243L433.405 386.245L426.854 386.245L426.854 412.308C426.854 413.904 427.112 415.043 427.629 415.724C428.145 416.405 429.131 416.745 430.587 416.745C430.963 416.745 431.397 416.722 431.89 416.675C432.383 416.628 432.865 416.581 433.334 416.534L433.334 422.099C432.395 422.24 431.526 422.345 430.728 422.416C429.93 422.486 429.061 422.522 428.122 422.522ZM439.463 421.958L439.463 381.243L447 381.243L447 421.958L439.463 421.958ZM439.463 375.185L439.463 367.296L447 367.296L447 375.185L439.463 375.185Z"/>
</svg>
