<?xml version="1.0" encoding="utf-8" ?>
<svg xmlns="http://www.w3.org/2000/svg" xmlns:xlink="http://www.w3.org/1999/xlink" width="512" height="512">
	<path fill="#EBF2FA" d="M0 0L0 512L512 512L512 0L0 0Z"/>
	<path fill="#064789" d="M123.8 252.386L123.839 252.353C124.124 252.338 124.493 252.132 124.768 252.028L129.058 250.534C132.323 249.628 135.768 249.251 139.149 249.239L141.551 249.266C143.885 249.389 146.559 249.729 148.835 250.282L147.387 252.53C146.737 253.471 146.078 254.428 145.341 255.305C140.195 261.426 131.994 266.052 123.841 266.062L92.9792 266.062C84.4865 266.054 77.1864 263.115 71.3361 256.739C69.7752 255.037 68.3302 253.02 67.1491 251.039C68.8276 250.336 70.8153 249.968 72.6105 249.723C79.6704 248.763 85.2546 249.818 91.7879 252.11L89.3957 249.604C86.229 246.149 83.4063 242.291 81.363 238.059C80.3013 235.897 79.1797 233.07 78.8136 230.669C80.3417 230.874 81.8798 231.08 83.3725 231.477C89.151 233.012 94.352 236.584 98.3083 241.013L100.49 243.691C100.91 244.252 101.288 244.849 101.744 245.381L101.254 241.494C101.106 240.397 101.158 239.246 101.159 238.138L101.206 235.27C101.602 229.05 104.185 220.15 108.104 215.034L108.757 215.94C111.974 220.993 113.763 227.099 114.347 233.017L114.483 234.388L114.474 240.022C114.359 241.863 114.038 243.737 113.634 245.535C114.197 244.99 114.582 244.275 115.039 243.644C119.926 236.885 128.324 231.419 136.738 230.951C136.568 231.424 136.498 231.958 136.365 232.446L135.529 235.089C133.413 241.245 129.783 246.193 125.281 250.864L124.312 251.843C124.172 251.981 123.972 252.135 123.87 252.301L123.839 252.353L123.8 252.386Z"/>
	<path fill="#064789" d="M137.275 288.652L133.761 288.942C132.421 288.96 131.039 289.014 129.703 288.926C124.184 288.561 118.076 286.695 114.066 282.777C113.337 282.065 111.736 280.423 111.178 279.568C111.038 279.354 111.105 277.754 111.105 277.425L111.108 271.204C111.575 271.204 112.047 271.238 112.492 271.238L119.203 271.239C120.886 271.24 122.469 271.239 124.124 271.614C131.345 273.249 136.294 279.912 137.369 287.006L137.482 288.057C137.495 288.23 137.526 288.42 137.486 288.59L137.275 288.652Z"/>
	<path fill="#064789" d="M78.4531 288.849L78.0416 288.798C78.0446 281.595 83.3906 274.278 90.1707 271.93C91.4943 271.472 92.818 271.294 94.2077 271.293L104.951 271.284L105.14 280.102C105.086 280.538 102.17 283.178 101.637 283.609C97.1594 287.239 90.9369 288.732 85.287 289.018L80.0764 289.013L78.4531 288.849Z"/>
	<path fill="#427AA1" d="M171.515 278C169.029 278 166.96 277.467 165.309 276.402C163.657 275.337 162.406 273.863 161.553 271.981C160.701 270.098 160.204 267.914 160.062 265.429L165.389 263.99C165.495 265.517 165.735 266.991 166.108 268.412C166.481 269.832 167.093 270.995 167.945 271.901C168.798 272.806 169.987 273.259 171.515 273.259C173.077 273.259 174.258 272.824 175.057 271.954C175.856 271.084 176.255 269.832 176.255 268.199C176.255 266.245 175.812 264.674 174.924 263.484C174.036 262.295 172.917 261.096 171.568 259.889L164.323 253.496C162.903 252.253 161.855 250.895 161.18 249.421C160.506 247.948 160.168 246.128 160.168 243.961C160.168 240.801 161.074 238.35 162.885 236.61C164.696 234.87 167.164 234 170.289 234C171.994 234 173.494 234.222 174.791 234.666C176.087 235.11 177.17 235.793 178.04 236.717C178.91 237.64 179.602 238.803 180.117 240.206C180.632 241.609 180.979 243.251 181.156 245.133L176.042 246.518C175.936 245.098 175.723 243.793 175.403 242.603C175.084 241.413 174.524 240.454 173.725 239.726C172.926 238.998 171.781 238.634 170.289 238.634C168.798 238.634 167.635 239.034 166.8 239.833C165.966 240.632 165.548 241.813 165.548 243.375C165.548 244.689 165.77 245.772 166.214 246.625C166.658 247.477 167.377 248.347 168.372 249.235L175.669 255.627C177.303 257.048 178.741 258.743 179.984 260.714C181.227 262.685 181.849 265.02 181.849 267.719C181.849 269.85 181.405 271.688 180.517 273.232C179.629 274.777 178.413 275.958 176.868 276.775C175.323 277.592 173.539 278 171.515 278ZM186.217 277.521L186.217 246.731L191.916 246.731L191.916 251.099C193.053 249.217 194.189 247.956 195.326 247.317C196.462 246.678 197.598 246.358 198.735 246.358C198.877 246.358 199.01 246.358 199.134 246.358C199.259 246.358 199.427 246.376 199.64 246.412L199.64 252.697C199.214 252.52 198.726 252.369 198.176 252.245C197.625 252.12 197.066 252.058 196.498 252.058C195.61 252.058 194.802 252.262 194.074 252.671C193.346 253.079 192.627 253.869 191.916 255.041L191.916 277.521L186.217 277.521ZM207.577 277.947C206.37 277.947 205.429 277.627 204.754 276.988C204.079 276.349 203.609 275.55 203.343 274.591C203.076 273.632 202.943 272.655 202.943 271.661L202.943 246.731L208.643 246.731L208.643 269.956C208.643 271.057 208.803 271.918 209.122 272.54C209.442 273.161 210.099 273.472 211.093 273.472C211.732 273.472 212.398 273.286 213.091 272.913C213.783 272.54 214.449 272.087 215.088 271.554L215.088 246.731L220.788 246.731L220.788 277.521L215.088 277.521L215.088 274.484C214.094 275.443 212.966 276.26 211.706 276.935C210.445 277.609 209.069 277.947 207.577 277.947ZM234.798 277.947C233.2 277.947 231.912 277.645 230.936 277.041C229.959 276.437 229.249 275.585 228.805 274.484C228.361 273.383 228.139 272.087 228.139 270.596L228.139 250.513L224.89 250.513L224.89 246.731L228.139 246.731L228.139 237.729L233.839 237.729L233.839 246.731L238.793 246.731L238.793 250.513L233.839 250.513L233.839 270.223C233.839 271.43 234.034 272.291 234.425 272.806C234.815 273.321 235.561 273.579 236.662 273.579C236.946 273.579 237.275 273.561 237.648 273.525C238.021 273.49 238.384 273.454 238.74 273.419L238.74 277.627C238.03 277.734 237.372 277.814 236.769 277.867C236.165 277.92 235.508 277.947 234.798 277.947ZM243.161 277.521L243.161 234.373L248.861 234.373L248.861 249.927C249.89 248.933 251.045 248.081 252.323 247.37C253.602 246.66 255.022 246.305 256.585 246.305C257.792 246.305 258.725 246.625 259.381 247.264C260.038 247.903 260.5 248.702 260.766 249.661C261.033 250.62 261.166 251.596 261.166 252.591L261.166 277.521L255.466 277.521L255.466 254.242C255.466 253.141 255.306 252.289 254.987 251.685C254.667 251.082 254.01 250.78 253.016 250.78C252.341 250.78 251.64 250.975 250.912 251.366C250.183 251.756 249.5 252.236 248.861 252.804L248.861 277.521L243.161 277.521ZM267.079 277.521L267.079 246.731L272.778 246.731L272.778 277.521L267.079 277.521ZM267.079 242.15L267.079 236.184L272.778 236.184L272.778 242.15L267.079 242.15ZM291.476 277.521L292.275 234.373L298.188 234.373L305.805 269.37L313.476 234.373L319.335 234.373L320.134 277.521L315.287 277.521L314.807 246.199L307.51 277.521L304.1 277.521L296.856 246.199L296.376 277.521L291.476 277.521ZM330.895 277.947C329.687 277.947 328.622 277.6 327.699 276.908C326.775 276.215 326.047 275.328 325.515 274.245C324.982 273.161 324.715 272.016 324.715 270.809C324.715 268.891 325.035 267.275 325.674 265.961C326.314 264.647 327.192 263.538 328.311 262.632C329.43 261.726 330.726 260.936 332.2 260.262C333.674 259.587 335.227 258.93 336.861 258.291L336.861 256.107C336.861 254.864 336.79 253.834 336.648 253.017C336.505 252.2 336.212 251.588 335.769 251.179C335.325 250.771 334.659 250.567 333.771 250.567C332.99 250.567 332.36 250.744 331.88 251.099C331.401 251.454 331.054 251.96 330.841 252.617C330.628 253.274 330.522 254.047 330.522 254.935L330.522 256.479L324.875 256.266C324.946 252.857 325.728 250.345 327.219 248.729C328.711 247.113 331.019 246.305 334.144 246.305C337.198 246.305 339.364 247.14 340.643 248.809C341.921 250.478 342.561 252.893 342.561 256.053L342.561 270.116C342.561 271.075 342.587 271.998 342.64 272.886C342.694 273.774 342.765 274.6 342.853 275.363C342.942 276.127 343.022 276.846 343.093 277.521L337.873 277.521C337.766 276.952 337.633 276.233 337.473 275.363C337.314 274.493 337.198 273.703 337.127 272.993C336.772 274.2 336.088 275.328 335.076 276.375C334.064 277.423 332.67 277.947 330.895 277.947ZM333.132 273.046C333.7 273.046 334.233 272.886 334.73 272.567C335.227 272.247 335.671 271.883 336.062 271.475C336.452 271.066 336.719 270.738 336.861 270.489L336.861 261.753C335.973 262.25 335.139 262.747 334.357 263.245C333.576 263.742 332.892 264.266 332.306 264.816C331.72 265.366 331.258 265.988 330.921 266.68C330.584 267.373 330.415 268.163 330.415 269.051C330.415 270.294 330.646 271.27 331.108 271.981C331.57 272.691 332.244 273.046 333.132 273.046ZM351.883 277.521L345.81 246.731L351.563 246.731L355.345 271.501L359.18 246.731L364.72 246.731L358.861 277.521L351.883 277.521ZM372.817 277.947C371.61 277.947 370.669 277.627 369.994 276.988C369.319 276.349 368.849 275.55 368.582 274.591C368.316 273.632 368.183 272.655 368.183 271.661L368.183 246.731L373.883 246.731L373.883 269.956C373.883 271.057 374.042 271.918 374.362 272.54C374.682 273.161 375.338 273.472 376.333 273.472C376.972 273.472 377.638 273.286 378.33 272.913C379.023 272.54 379.689 272.087 380.328 271.554L380.328 246.731L386.028 246.731L386.028 277.521L380.328 277.521L380.328 274.484C379.334 275.443 378.206 276.26 376.945 276.935C375.685 277.609 374.309 277.947 372.817 277.947ZM392.367 277.521L392.367 234.373L398.067 234.373L398.067 277.521L392.367 277.521ZM412.556 277.947C410.141 277.947 408.277 277.476 406.962 276.535C405.648 275.594 404.734 274.209 404.219 272.38C403.704 270.551 403.447 268.305 403.447 265.642L403.447 258.61C403.447 255.876 403.713 253.603 404.246 251.792C404.778 249.981 405.711 248.613 407.042 247.69C408.374 246.767 410.212 246.305 412.556 246.305C415.148 246.305 417.057 246.838 418.282 247.903C419.507 248.969 420.315 250.504 420.706 252.511C421.096 254.517 421.292 256.923 421.292 259.729L421.292 262.232L409.146 262.232L409.146 268.412C409.146 269.655 409.262 270.667 409.493 271.448C409.723 272.229 410.096 272.806 410.611 273.179C411.126 273.552 411.792 273.738 412.609 273.738C413.461 273.738 414.11 273.534 414.553 273.126C414.997 272.717 415.299 272.132 415.459 271.368C415.619 270.605 415.699 269.708 415.699 268.678L415.699 266.814L421.238 266.814L421.238 267.985C421.238 271.075 420.582 273.508 419.268 275.283C417.953 277.059 415.716 277.947 412.556 277.947ZM409.146 259.143L415.699 259.143L415.699 256.373C415.699 255.094 415.628 254.02 415.485 253.15C415.343 252.28 415.05 251.623 414.607 251.179C414.163 250.735 413.461 250.513 412.502 250.513C411.579 250.513 410.878 250.726 410.398 251.153C409.919 251.579 409.59 252.298 409.413 253.31C409.235 254.322 409.146 255.716 409.146 257.492L409.146 259.143ZM434.662 277.947C433.064 277.947 431.777 277.645 430.8 277.041C429.824 276.437 429.113 275.585 428.669 274.484C428.226 273.383 428.004 272.087 428.004 270.596L428.004 250.513L424.754 250.513L424.754 246.731L428.004 246.731L428.004 237.729L433.703 237.729L433.703 246.731L438.657 246.731L438.657 250.513L433.703 250.513L433.703 270.223C433.703 271.43 433.899 272.291 434.289 272.806C434.68 273.321 435.426 273.579 436.527 273.579C436.811 273.579 437.139 273.561 437.512 273.525C437.885 273.49 438.249 273.454 438.604 273.419L438.604 277.627C437.894 277.734 437.237 277.814 436.633 277.867C436.03 277.92 435.372 277.947 434.662 277.947ZM443.238 277.521L443.238 246.731L448.938 246.731L448.938 277.521L443.238 277.521ZM443.238 242.15L443.238 236.184L448.938 236.184L448.938 242.15L443.238 242.15Z"/>
</svg>
