<svg width="512" height="188" viewBox="0 0 512 188" fill="none" xmlns="http://www.w3.org/2000/svg">
<g clip-path="url(#clip0_1200_1976)">
<path d="M121.69 94.319C121.975 94.304 122.344 94.098 122.619 93.994L126.909 92.5C130.174 91.594 133.619 91.217 137 91.205L139.402 91.232C141.736 91.355 144.41 91.695 146.686 92.248L145.238 94.496C144.588 95.437 143.929 96.394 143.192 97.271C138.046 103.392 129.845 108.018 121.692 108.028H90.8301C82.3374 108.02 75.0373 105.081 69.187 98.705C67.6261 97.003 66.1811 94.986 65 93.005C66.6785 92.302 68.6662 91.934 70.4614 91.689C77.5213 90.729 83.1055 91.784 89.6388 94.076L87.2466 91.57C84.0799 88.115 81.2572 84.257 79.2139 80.025C78.1522 77.863 77.0306 75.036 76.6645 72.635C78.1926 72.84 79.7307 73.046 81.2234 73.443C87.0019 74.978 92.2029 78.55 96.1592 82.979L98.3409 85.657C98.7609 86.218 99.1389 86.815 99.5949 87.347L99.1049 83.46C98.9569 82.363 99.0089 81.212 99.0099 80.104L99.0569 77.236C99.4529 71.016 102.036 62.116 105.955 57L106.608 57.906C109.825 62.959 111.614 69.065 112.198 74.983L112.334 76.354L112.325 81.988C112.21 83.829 111.889 85.703 111.485 87.501C112.048 86.956 112.433 86.241 112.89 85.61C117.777 78.851 126.175 73.385 134.589 72.917C134.419 73.39 134.349 73.924 134.216 74.412L133.38 77.055C131.264 83.211 127.634 88.159 123.132 92.83L122.163 93.809C122.023 93.947 121.823 94.101 121.721 94.267L121.69 94.319Z" fill="#064789"/>
<path d="M135.124 130.618L131.61 130.908C130.27 130.926 128.888 130.98 127.552 130.892C122.033 130.527 115.925 128.661 111.915 124.743C111.186 124.031 109.585 122.389 109.027 121.534C108.887 121.32 108.954 119.72 108.954 119.391L108.957 113.17C109.424 113.17 109.896 113.204 110.341 113.204L117.052 113.205C118.735 113.206 120.318 113.205 121.973 113.58C129.194 115.215 134.143 121.878 135.218 128.972L135.331 130.023C135.344 130.196 135.375 130.386 135.335 130.556L135.124 130.618Z" fill="#064789"/>
<path d="M76.3021 130.815L75.8906 130.764C75.8936 123.561 81.2396 116.244 88.0197 113.896C89.3433 113.438 90.667 113.26 92.0567 113.259L102.8 113.25L102.989 122.068C102.935 122.504 100.019 125.144 99.486 125.575C95.0084 129.205 88.7859 130.698 83.136 130.984L77.9254 130.979L76.3021 130.815Z" fill="#064789"/>
<path d="M169.367 119.966C166.881 119.966 164.812 119.433 163.161 118.368C161.509 117.303 160.258 115.829 159.405 113.947C158.553 112.064 158.056 109.88 157.914 107.395L163.241 105.956C163.347 107.483 163.587 108.957 163.96 110.378C164.333 111.798 164.945 112.961 165.797 113.867C166.65 114.772 167.839 115.225 169.367 115.225C170.929 115.225 172.11 114.79 172.909 113.92C173.708 113.05 174.107 111.798 174.107 110.165C174.107 108.211 173.664 106.64 172.776 105.45C171.888 104.261 170.769 103.062 169.42 101.855L162.175 95.4621C160.755 94.2191 159.707 92.8611 159.032 91.3871C158.358 89.9141 158.02 88.0941 158.02 85.9271C158.02 82.7671 158.926 80.3161 160.737 78.5761C162.548 76.8361 165.016 75.9661 168.141 75.9661C169.846 75.9661 171.346 76.1881 172.643 76.6321C173.939 77.0761 175.022 77.7591 175.892 78.6831C176.762 79.6061 177.454 80.7691 177.969 82.1721C178.484 83.5751 178.831 85.2171 179.008 87.0991L173.894 88.4841C173.788 87.0641 173.575 85.7591 173.255 84.5691C172.936 83.3791 172.376 82.4201 171.577 81.6921C170.778 80.9641 169.633 80.6001 168.141 80.6001C166.65 80.6001 165.487 81.0001 164.652 81.7991C163.818 82.5981 163.4 83.7791 163.4 85.3411C163.4 86.6551 163.622 87.7381 164.066 88.5911C164.51 89.4431 165.229 90.3131 166.224 91.2011L173.521 97.5931C175.155 99.0141 176.593 100.709 177.836 102.68C179.079 104.651 179.701 106.986 179.701 109.685C179.701 111.816 179.257 113.654 178.369 115.198C177.481 116.743 176.265 117.924 174.72 118.741C173.175 119.558 171.391 119.966 169.367 119.966ZM184.069 119.487V88.6971H189.768V93.0651C190.905 91.1831 192.041 89.9221 193.178 89.2831C194.314 88.6441 195.45 88.3241 196.587 88.3241C196.729 88.3241 196.862 88.3241 196.986 88.3241C197.111 88.3241 197.279 88.3421 197.492 88.3781V94.6631C197.066 94.4861 196.578 94.3351 196.028 94.2111C195.477 94.0861 194.918 94.0241 194.35 94.0241C193.462 94.0241 192.654 94.2281 191.926 94.6371C191.198 95.0451 190.479 95.8351 189.768 97.0071V119.487H184.069ZM205.429 119.913C204.222 119.913 203.281 119.593 202.606 118.954C201.931 118.315 201.461 117.516 201.195 116.557C200.928 115.598 200.795 114.621 200.795 113.627V88.6971H206.495V111.922C206.495 113.023 206.655 113.884 206.974 114.506C207.294 115.127 207.951 115.438 208.945 115.438C209.584 115.438 210.25 115.252 210.943 114.879C211.635 114.506 212.301 114.053 212.94 113.52V88.6971H218.64V119.487H212.94V116.45C211.946 117.409 210.818 118.226 209.558 118.901C208.297 119.575 206.921 119.913 205.429 119.913ZM232.65 119.913C231.052 119.913 229.764 119.611 228.788 119.007C227.811 118.403 227.101 117.551 226.657 116.45C226.213 115.349 225.991 114.053 225.991 112.562V92.4791H222.742V88.6971H225.991V79.6951H231.691V88.6971H236.645V92.4791H231.691V112.189C231.691 113.396 231.886 114.257 232.277 114.772C232.667 115.287 233.413 115.545 234.514 115.545C234.798 115.545 235.127 115.527 235.5 115.491C235.873 115.456 236.236 115.42 236.592 115.385V119.593C235.882 119.7 235.224 119.78 234.621 119.833C234.017 119.886 233.36 119.913 232.65 119.913ZM241.013 119.487V76.3391H246.713V91.8931C247.742 90.8991 248.897 90.0471 250.175 89.3361C251.454 88.6261 252.874 88.2711 254.437 88.2711C255.644 88.2711 256.577 88.5911 257.233 89.2301C257.89 89.8691 258.352 90.6681 258.618 91.6271C258.885 92.5861 259.018 93.5621 259.018 94.5571V119.487H253.318V96.2081C253.318 95.1071 253.158 94.2551 252.839 93.6511C252.519 93.0481 251.862 92.7461 250.868 92.7461C250.193 92.7461 249.492 92.9411 248.764 93.3321C248.035 93.7221 247.352 94.2021 246.713 94.7701V119.487H241.013ZM264.931 119.487V88.6971H270.63V119.487H264.931ZM264.931 84.1161V78.1501H270.63V84.1161H264.931ZM289.328 119.487L290.127 76.3391H296.04L303.657 111.336L311.328 76.3391H317.187L317.986 119.487H313.139L312.659 88.1651L305.362 119.487H301.952L294.708 88.1651L294.228 119.487H289.328ZM328.747 119.913C327.539 119.913 326.474 119.566 325.551 118.874C324.627 118.181 323.899 117.294 323.367 116.211C322.834 115.127 322.567 113.982 322.567 112.775C322.567 110.857 322.887 109.241 323.526 107.927C324.166 106.613 325.044 105.504 326.163 104.598C327.282 103.692 328.578 102.902 330.052 102.228C331.526 101.553 333.079 100.896 334.713 100.257V98.0731C334.713 96.8301 334.642 95.8001 334.5 94.9831C334.357 94.1661 334.064 93.5541 333.621 93.1451C333.177 92.7371 332.511 92.5331 331.623 92.5331C330.842 92.5331 330.212 92.7101 329.732 93.0651C329.253 93.4201 328.906 93.9261 328.693 94.5831C328.48 95.2401 328.374 96.0131 328.374 96.9011V98.4451L322.727 98.2321C322.798 94.8231 323.58 92.3111 325.071 90.6951C326.563 89.0791 328.871 88.2711 331.996 88.2711C335.05 88.2711 337.216 89.1061 338.495 90.7751C339.773 92.4441 340.413 94.8591 340.413 98.0191V112.082C340.413 113.041 340.439 113.964 340.492 114.852C340.546 115.74 340.617 116.566 340.705 117.329C340.794 118.093 340.874 118.812 340.945 119.487H335.725C335.618 118.918 335.485 118.199 335.325 117.329C335.166 116.459 335.05 115.669 334.979 114.959C334.624 116.166 333.94 117.294 332.928 118.341C331.916 119.389 330.522 119.913 328.747 119.913ZM330.984 115.012C331.552 115.012 332.085 114.852 332.582 114.533C333.079 114.213 333.523 113.849 333.914 113.441C334.304 113.032 334.571 112.704 334.713 112.455V103.719C333.825 104.216 332.991 104.713 332.209 105.211C331.428 105.708 330.744 106.232 330.158 106.782C329.572 107.332 329.11 107.954 328.773 108.646C328.436 109.339 328.267 110.129 328.267 111.017C328.267 112.26 328.498 113.236 328.96 113.947C329.422 114.657 330.096 115.012 330.984 115.012ZM349.735 119.487L343.662 88.6971H349.415L353.197 113.467L357.032 88.6971H362.572L356.713 119.487H349.735ZM370.669 119.913C369.462 119.913 368.521 119.593 367.846 118.954C367.171 118.315 366.701 117.516 366.434 116.557C366.168 115.598 366.035 114.621 366.035 113.627V88.6971H371.735V111.922C371.735 113.023 371.894 113.884 372.214 114.506C372.534 115.127 373.19 115.438 374.185 115.438C374.824 115.438 375.49 115.252 376.182 114.879C376.875 114.506 377.541 114.053 378.18 113.52V88.6971H383.88V119.487H378.18V116.45C377.186 117.409 376.058 118.226 374.797 118.901C373.537 119.575 372.161 119.913 370.669 119.913ZM390.219 119.487V76.3391H395.919V119.487H390.219ZM410.408 119.913C407.993 119.913 406.129 119.442 404.814 118.501C403.5 117.56 402.586 116.175 402.071 114.346C401.556 112.517 401.299 110.271 401.299 107.608V100.576C401.299 97.842 401.565 95.5691 402.098 93.7581C402.63 91.9471 403.563 90.5791 404.894 89.6561C406.226 88.7331 408.064 88.2711 410.408 88.2711C413 88.2711 414.909 88.8041 416.134 89.8691C417.359 90.9351 418.167 92.4701 418.558 94.4771C418.948 96.4831 419.144 98.8891 419.144 101.695V104.198H406.998V110.378C406.998 111.621 407.114 112.633 407.345 113.414C407.575 114.195 407.948 114.772 408.463 115.145C408.978 115.518 409.644 115.704 410.461 115.704C411.313 115.704 411.962 115.5 412.405 115.092C412.849 114.683 413.151 114.098 413.311 113.334C413.471 112.571 413.551 111.674 413.551 110.644V108.78H419.09V109.951C419.09 113.041 418.434 115.474 417.12 117.249C415.805 119.025 413.568 119.913 410.408 119.913ZM406.998 101.109H413.551V98.3391C413.551 97.0601 413.48 95.9861 413.337 95.1161C413.195 94.2461 412.902 93.5891 412.459 93.1451C412.015 92.7011 411.313 92.4791 410.354 92.4791C409.431 92.4791 408.73 92.6921 408.25 93.1191C407.771 93.5451 407.442 94.2641 407.265 95.2761C407.087 96.2881 406.998 97.6821 406.998 99.4581V101.109ZM432.514 119.913C430.916 119.913 429.629 119.611 428.652 119.007C427.676 118.403 426.965 117.551 426.521 116.45C426.078 115.349 425.856 114.053 425.856 112.562V92.4791H422.606V88.6971H425.856V79.6951H431.555V88.6971H436.509V92.4791H431.555V112.189C431.555 113.396 431.751 114.257 432.141 114.772C432.532 115.287 433.278 115.545 434.379 115.545C434.663 115.545 434.991 115.527 435.364 115.491C435.737 115.456 436.101 115.42 436.456 115.385V119.593C435.746 119.7 435.089 119.78 434.485 119.833C433.882 119.886 433.224 119.913 432.514 119.913ZM441.09 119.487V88.6971H446.79V119.487H441.09ZM441.09 84.1161V78.1501H446.79V84.1161H441.09Z" fill="#427AA1"/>
</g>
<defs>
<clipPath id="clip0_1200_1976">
<rect width="512" height="188" fill="white"/>
</clipPath>
</defs>
</svg>
